<?xml version="1.0" encoding="UTF-8" standalone="no"?>
<!-- Created with Inkscape (http://www.inkscape.org/) -->

<svg
   xmlns:dc="http://purl.org/dc/elements/1.1/"
   xmlns:cc="http://creativecommons.org/ns#"
   xmlns:rdf="http://www.w3.org/1999/02/22-rdf-syntax-ns#"
   xmlns:svg="http://www.w3.org/2000/svg"
   xmlns="http://www.w3.org/2000/svg"
   xmlns:xlink="http://www.w3.org/1999/xlink"
   xmlns:sodipodi="http://sodipodi.sourceforge.net/DTD/sodipodi-0.dtd"
   xmlns:inkscape="http://www.inkscape.org/namespaces/inkscape"
   version="1.0"
   width="22"
   height="22"
   id="svg3786"
   inkscape:version="0.47 r22583"
   sodipodi:docname="indicator-usb.svg">
  <metadata
     id="metadata22">
    <rdf:RDF>
      <cc:Work
         rdf:about="">
        <dc:format>image/svg+xml</dc:format>
        <dc:type
           rdf:resource="http://purl.org/dc/dcmitype/StillImage" />
      </cc:Work>
    </rdf:RDF>
  </metadata>
  <sodipodi:namedview
     pagecolor="#ffffff"
     bordercolor="#666666"
     borderopacity="1"
     objecttolerance="10"
     gridtolerance="10"
     guidetolerance="10"
     inkscape:pageopacity="0"
     inkscape:pageshadow="2"
     inkscape:window-width="1024"
     inkscape:window-height="543"
     id="namedview20"
     showgrid="false"
     inkscape:zoom="10.727273"
     inkscape:cx="-5.4067792"
     inkscape:cy="11"
     inkscape:window-x="0"
     inkscape:window-y="24"
     inkscape:window-maximized="1"
     inkscape:current-layer="svg3786" />
  <defs
     id="defs3788">
    <inkscape:perspective
       sodipodi:type="inkscape:persp3d"
       inkscape:vp_x="0 : 11 : 1"
       inkscape:vp_y="0 : 1000 : 0"
       inkscape:vp_z="22 : 11 : 1"
       inkscape:persp3d-origin="11 : 7.3333333 : 1"
       id="perspective24" />
    <linearGradient
       x1="46.427349"
       y1="101.88274"
       x2="46.427349"
       y2="85.788147"
       id="linearGradient3217"
       xlink:href="#linearGradient2215"
       gradientUnits="userSpaceOnUse"
       gradientTransform="matrix(0.1258389,0,0,0.19859933,0.13144651,-5.1683895)" />
    <linearGradient
       x1="7.8514447"
       y1="19.967693"
       x2="7.8514447"
       y2="7.034781"
       id="linearGradient3214"
       xlink:href="#linearGradient3484"
       gradientUnits="userSpaceOnUse"
       gradientTransform="matrix(0.6451613,0,0,0.9797594,0.258064,-6.7257265)" />
    <linearGradient
       x1="-35.53907"
       y1="-144.20657"
       x2="-35.53907"
       y2="-108.32133"
       id="linearGradient3212"
       xlink:href="#linearGradient7056"
       gradientUnits="userSpaceOnUse"
       gradientTransform="matrix(0.2359882,0,0,0.3555555,18.232394,51.440112)" />
    <linearGradient
       id="linearGradient7056">
      <stop
         id="stop7064"
         style="stop-color:#f0f0f1;stop-opacity:1"
         offset="0" />
      <stop
         id="stop7060"
         style="stop-color:#ddddde;stop-opacity:1"
         offset="1" />
    </linearGradient>
    <linearGradient
       id="linearGradient3484">
      <stop
         id="stop3486"
         style="stop-color:#aaaaaa;stop-opacity:1"
         offset="0" />
      <stop
         id="stop3488"
         style="stop-color:#c8c8c8;stop-opacity:1"
         offset="1" />
    </linearGradient>
    <linearGradient
       id="linearGradient2215">
      <stop
         id="stop2223"
         style="stop-color:#aaaaaa;stop-opacity:1"
         offset="0" />
      <stop
         id="stop2219"
         style="stop-color:#646464;stop-opacity:1"
         offset="1" />
    </linearGradient>
  </defs>
  <path
     d="m 4.6535185,14.731239 c 4.4655601,0 8.9311175,0 13.3966785,0 0.03598,0.110884 0.0059,0.160626 0.01575,0.29499 -0.272344,2.387143 -0.06461,1.89522 -0.695859,2.40876 -0.193158,0.03407 -7.7882734,0 -12.0608772,0 -0.5126762,-0.51354 -0.4002381,0.04644 -0.6714417,-2.80984 l 0.015748,0.10609 z"
     id="rect2992"
     style="fill:#dedede;fill-opacity:1;fill-rule:nonzero;stroke:#d5d5d6;stroke-width:0.71024710000000002;stroke-linecap:butt;stroke-linejoin:miter;stroke-miterlimit:4;stroke-opacity:1;stroke-dasharray:none;stroke-dashoffset:0;marker:none;visibility:visible;display:inline;overflow:visible;enable-background:accumulate" />
  <path
     d="M 5.5992617,4.9597959 4.737585,14.702108 c -0.00862,0 -0.013035,0.0026 -0.013035,0.0098 l 13.257104,0 c 0,-0.0072 -0.0045,-0.0098 -0.01303,-0.0098 l -0.88857,-9.9349067 c 0,0 -0.165931,-0.6570233 -0.803942,-0.6570233 -0.608189,0 -9.3109382,-0.00394 -9.951676,-0.00394 -0.6705267,0 -0.7251747,0.8535484 -0.7251747,0.8535484 z"
     id="rect2990"
     style="fill:#ffffff;fill-opacity:1;fill-rule:nonzero;stroke:#e2e2e3;stroke-width:0.88380681999999999;stroke-linecap:round;stroke-linejoin:round;stroke-miterlimit:4;stroke-opacity:1;stroke-dasharray:none;stroke-dashoffset:0;marker:none;visibility:visible;display:inline;overflow:visible;enable-background:accumulate" />
  <path
     d="m 5.5874028,14.711931 11.5313992,0"
     id="path2215"
     style="opacity:0.8;fill:#eeeeee;fill-opacity:1;stroke:#ffffff;stroke-width:0.88380682;stroke-linecap:round;stroke-linejoin:round;stroke-miterlimit:4;stroke-opacity:1;stroke-dasharray:none;display:inline" />
  <path
     d="m 11.290656,6.3159624 c -0.0028,0.0026 0.0027,0.023009 0,0.025688 -0.0027,0.00268 -0.02355,-0.00276 -0.02621,0 a 0.07915881,0.07759371 0 0 1 -0.02621,0.025688 c -0.402853,0.1851443 -0.956269,0.4006228 -1.3626984,0.7192557 -0.0017,0.00156 0.0017,0.0241 0,0.025688 -0.0017,0.00162 -0.02458,-0.00165 -0.02621,0 -0.0015,0.00179 0.0014,0.023882 0,0.025688 -0.0014,0.00186 -0.02487,-0.00188 -0.02621,0 -0.0012,0.00196 0.0012,0.023702 0,0.025688 -9.34e-4,0.0021 9e-4,0.023577 0,0.025688 -8.99e-4,0.00211 -0.02534,-0.00213 -0.0262,0 -7.06e-4,0.00217 6.66e-4,0.023495 0,0.025688 -4.25e-4,0.0023 3.84e-4,0.02343 0,0.025692 -1.79e-4,0.0023 1.37e-4,0.023403 0,0.025683 6.9e-5,0.0023 -1.12e-4,0.023403 0,0.025692 3.58e-4,0.0023 -4e-4,0.02343 0,0.025683 6.01e-4,0.00221 -6.42e-4,0.023491 0,0.025692 8.35e-4,0.00212 0.02533,-0.00212 0.0262,0 8.82e-4,0.00212 -9.17e-4,0.02358 0,0.025683 0.0011,0.00203 -0.0011,0.023686 0,0.025683 0.0013,0.00186 0.02486,-0.00186 0.02621,0 0.0014,0.00186 -0.0014,0.023872 0,0.025692 0.0016,0.00159 0.02454,0.024084 0.02621,0.025683 0.0019,0.00141 0.02433,-0.00133 0.0262,0 0.0019,0.00133 -0.0019,0.024393 0,0.025692 0.002,0.00114 0.02415,-0.00107 0.02621,0 0.0022,8.668e-4 0.02403,0.024862 0.02621,0.025683 0.0022,6.355e-4 0.02395,-5.957e-4 0.02621,0 a 0.07915881,0.07759371 0 0 1 0.0262,0 c 0.193076,0.035724 0.328831,0.021954 0.497911,0.025692 a 0.07915881,0.07759371 0 0 1 0.02621,0 0.07915881,0.07759371 0 0 1 0.02621,0.025683 0.07915881,0.07759371 0 0 1 0.02621,0.025683 0.07915881,0.07759371 0 0 1 0,0.025692 c 0.0095,0.8143495 0.03453,1.5442334 0,2.3375826 a 0.07915881,0.07759371 0 0 1 0,0.02568 0.07915881,0.07759371 0 0 1 -0.02621,0.02569 0.07915881,0.07759371 0 0 1 -0.02621,0.02568 0.07915881,0.07759371 0 0 1 -0.02621,0 c -0.152909,-0.0014 -0.283888,-0.0047 -0.419293,0 -0.3239304,0 -0.5667984,-0.0287 -0.7599704,-0.1284393 -0.170884,-0.08822 -0.3108567,-0.266298 -0.4192935,-0.462367 a 0.07915881,0.07759371 0 0 1 0,-0.02568 0.07915881,0.07759371 0 0 1 0,-0.02569 0.07915881,0.07759371 0 0 1 0.026206,-0.02569 0.07915881,0.07759371 0 0 1 0.026205,-0.02569 c 0.1985176,-0.05659 0.3482286,-0.1763629 0.3930906,-0.3596222 0.02699,-0.1102571 0.0069,-0.2572264 -0.07862,-0.3596281 -0.08704,-0.1042647 -0.178809,-0.1578319 -0.3144699,-0.1798142 -0.00442,5.48e-4 -0.027731,0.00654 -0.052412,0 -0.5425469,-0.1442372 -1.14564,-0.1539025 -1.7033793,0.077061 -0.00765,0.00321 -0.018573,-0.00328 -0.026205,0 -0.00257,0.00281 0.00248,0.022778 0,0.02569 -0.00248,0.00289 -0.023808,-0.00297 -0.026205,0 -0.1339521,0.1034152 -0.2442329,0.2701833 -0.2096469,0.4366907 0.037216,0.1791757 0.1520528,0.2443984 0.2620585,0.3082534 0.1567998,0.09102 0.282182,0.124462 0.4192937,0.154126 a 0.07915881,0.07759371 0 0 1 0.026205,0.02568 0.07915881,0.07759371 0 0 1 0.026205,0 c 0.1576442,0.2668 0.3237388,0.5633152 0.733764,0.8990702 0.00273,0.0013 0.02344,-0.0012 0.026205,0 a 0.07915881,0.07759371 0 0 1 0.026205,0 c 0.3494073,0.208014 0.5250987,0.364333 0.8385879,0.436691 0.241031,0.05564 0.680245,0.04741 1.2054693,0.05137 a 0.07915881,0.07759371 0 0 1 0.02621,0 0.07915881,0.07759371 0 0 1 0.02621,0.02569 0.07915881,0.07759371 0 0 1 0.02621,0.02568 0.07915881,0.07759371 0 0 1 0,0.02569 c 6.66e-4,0.353788 -0.0032,0.71422 0,1.078885 a 0.07915881,0.07759371 0 0 1 0,0.02569 0.07915881,0.07759371 0 0 1 -0.02621,0.02568 0.07915881,0.07759371 0 0 1 -0.02621,0.02569 c -0.239467,0.09388 -0.44708,0.163279 -0.6551463,0.359627 -0.0021,0.0018 0.0021,0.02381 0,0.02569 -0.002,0.0019 -0.02424,-0.0019 -0.02621,0 -0.0018,0.0021 0.0017,0.02353 0,0.02568 -0.0016,0.0022 -0.02461,-0.0023 -0.0262,0 -0.0014,0.0024 0.0014,0.0233 0,0.02569 -0.0012,0.0025 0.0011,0.02316 0,0.02568 -0.0011,0.0026 -0.02519,-0.0026 -0.02621,0 -8.43e-4,0.0026 7.89e-4,0.02305 0,0.02569 -5.55e-4,0.0027 4.97e-4,0.02298 0,0.02568 -0.02622,0.151216 -0.0019,0.302292 0.07862,0.411004 0.08222,0.11105 0.2008563,0.159947 0.3144713,0.205502 0.210396,0.08436 0.418789,0.129277 0.524117,0.154126 0.0027,1.67e-4 0.02348,-1.13e-4 0.02621,0 0.0027,-1.13e-4 0.02348,1.67e-4 0.02621,0 0.567685,0.05596 1.363151,0.07767 1.965438,-0.282566 a 0.07915881,0.07759371 0 0 1 0.02621,0 c 0.003,-0.0017 0.02326,0.0018 0.02621,0 0.0029,-0.0018 -0.0028,-0.02374 0,-0.02568 0.0027,-0.002 0.02351,0.0021 0.02621,0 0.0024,-0.0024 -0.0024,-0.02327 0,-0.02568 0.0024,-0.0024 0.02388,0.0025 0.02621,0 0.0992,-0.143218 0.09004,-0.377453 0.02621,-0.513755 -0.0702,-0.149901 -0.166443,-0.202855 -0.288264,-0.282552 -0.140186,-0.0917 -0.271229,-0.133674 -0.419304,-0.179814 a 0.07915881,0.07759371 0 0 1 -0.02621,-0.02569 0.07915881,0.07759371 0 0 1 -0.02621,-0.02568 0.07915881,0.07759371 0 0 1 0,-0.02569 l 0,-1.823829 a 0.07915881,0.07759371 0 0 1 0,-0.02569 0.07915881,0.07759371 0 0 1 0.02621,-0.02568 0.07915881,0.07759371 0 0 1 0.02621,-0.02569 0.07915881,0.07759371 0 0 1 0.02621,0 c 0.826291,-0.05761 1.560057,-0.1736102 2.358527,-0.6935672 l 0,0.02569 c 0.278607,-0.193194 0.455384,-0.5149649 0.576529,-0.8476954 a 0.07915881,0.07759371 0 0 1 0.02621,-0.02569 0.07915881,0.07759371 0 0 1 0.02621,-0.025682 0.07915881,0.07759371 0 0 1 0.02621,0 l 0.366882,-0.051373 0.02621,0 c 0.0027,-7.809e-4 0.02344,8.589e-4 0.02621,0 0.0026,-0.00109 -0.0026,-0.024605 0,-0.025692 0.0026,-0.00107 0.02354,0.00114 0.02621,0 0.0025,-0.00141 0.02372,0.0015 0.02621,0 0.0024,-0.00159 -0.0024,-0.024005 0,-0.025683 0.0023,-0.00176 0.02394,0.00176 0.02621,0 0.0021,-0.00195 -0.002,-0.023668 0,-0.025683 0.002,-0.00203 0.02425,0.00212 0.02621,0 0.0018,-0.0023 -0.0017,-0.023385 0,-0.025692 0.0016,-0.00239 0.02467,0.00239 0.02621,0 0.0014,-0.00247 -0.0013,-0.023182 0,-0.025683 0.0011,-0.00265 -9.61e-4,-0.023033 0,-0.025692 9.6e-4,-0.00265 0.02529,0.00265 0.02621,0 7.8e-4,-0.00274 -7.3e-4,-0.022935 0,-0.025683 4.77e-4,-0.00283 -4.16e-4,-0.022873 0,-0.025692 1.59e-4,-0.00283 -9.7e-5,-0.022847 0,-0.025683 l 0,-0.4623795 c -1.7e-4,-0.00318 2.45e-4,-0.022546 0,-0.025683 -4.82e-4,-0.00309 5.58e-4,-0.022581 0,-0.025692 -8.6e-4,-0.003 8.58e-4,-0.022679 0,-0.025683 -9.61e-4,-0.003 -0.02512,0.003 -0.02621,0 -0.0012,-0.00291 0.0013,-0.022812 0,-0.025692 -0.0016,-0.00274 0.0017,-0.022988 0,-0.025683 -0.0018,-0.00265 -0.02442,0.00265 -0.02621,0 -0.0019,-0.00256 0.002,-0.023209 0,-0.025692 -0.0022,-0.0023 -0.024,0.0023 -0.02621,0 -0.0024,-0.00221 0.0024,-0.023571 0,-0.025683 -0.0025,-0.00195 -0.02362,0.00186 -0.02621,0 -0.0026,-0.00176 0.0026,-0.023995 0,-0.025683 -0.0027,-0.00159 -0.02341,0.00159 -0.02621,0 -0.0029,-0.00133 -0.02324,0.00123 -0.02621,0 -0.003,-0.00107 0.003,-0.024693 0,-0.025692 -0.0031,-8.821e-4 -0.02311,8.433e-4 -0.02621,0 -0.0032,-5.471e-4 -0.02303,4.719e-4 -0.02621,0 -0.0032,-2.413e-4 -0.02299,1.653e-4 -0.02621,0 l -1.755793,0 c -0.0032,1.653e-4 -0.023,-2.413e-4 -0.02621,0 -0.0032,4.719e-4 -0.02304,-5.471e-4 -0.02621,0 -0.0031,8.433e-4 -0.02313,-8.821e-4 -0.02621,0 -0.003,9.781e-4 0.003,0.024623 0,0.025692 -0.0029,0.00123 -0.02327,-0.00133 -0.02621,0 -0.0027,0.00159 -0.02345,-0.00159 -0.02621,0 -0.0026,0.00168 0.0026,0.023933 0,0.025683 -0.0026,0.00186 -0.02368,-0.00195 -0.02621,0 -0.0024,0.00212 0.0024,0.023518 0,0.025683 -0.0022,0.0023 -0.02404,-0.0023 -0.02621,0 -0.002,0.00247 0.0019,0.023156 0,0.025692 -0.0018,0.00265 -0.02449,-0.00265 -0.02621,0 -0.0017,0.00274 0.0016,0.022944 0,0.025683 -0.0013,0.00292 0.0012,0.022776 0,0.025692 -0.0011,0.003 -0.02519,-0.003 -0.02621,0 -8.58e-4,0.003 8.6e-4,0.022652 0,0.025683 -5.58e-4,0.00309 4.82e-4,0.022572 0,0.025692 -2.45e-4,0.00309 1.7e-4,0.022537 0,0.025683 l 0,0.4623795 c 1.43e-4,0.003 -2.1e-4,0.022705 0,0.025683 4.93e-4,0.00292 -5.61e-4,0.022749 0,0.025692 8.6e-4,0.00292 -8.58e-4,0.022828 0,0.025683 9.61e-4,0.00283 0.02518,-0.00283 0.02621,0 0.0011,0.00274 -0.0012,0.022952 0,0.025692 0.0015,0.00266 -0.0015,0.023111 0,0.025683 0.0017,0.00247 0.02448,-0.00247 0.02621,0 0.0018,0.00239 -0.0019,0.023351 0,0.025692 0.0021,0.00221 0.02409,-0.00212 0.02621,0 0.0022,0.00212 -0.0022,0.023625 0,0.025683 0.0025,0.00186 0.02377,-0.00176 0.02621,0 0.0025,0.00168 -0.0026,0.024066 0,0.025683 0.0026,0.00159 0.02357,-0.0015 0.02621,0 0.0027,0.00123 0.02338,-0.00114 0.02621,0 0.0028,0.00107 -0.0028,0.024685 0,0.025692 0.0029,8.589e-4 0.02327,-7.809e-4 0.02621,0 0.003,5.341e-4 0.02319,-4.654e-4 0.02621,0 l 0.05241,0 a 0.07915881,0.07759371 0 0 1 0.02621,0 0.07915881,0.07759371 0 0 1 0.02621,0.025682 0.07915881,0.07759371 0 0 1 0.02621,0.02569 0.07915881,0.07759371 0 0 1 0,0.025682 0.07915881,0.07759371 0 0 1 0,0.02569 0.07915881,0.07759371 0 0 1 0,0.025682 c -0.116499,0.1982915 -0.300241,0.3659749 -0.497912,0.4623803 -0.01,0.00262 -0.01623,3.572e-4 -0.02621,0 -0.0084,0.00218 -0.03008,-8.594e-4 -0.02621,0 -0.0055,0.00384 0.0084,0.022078 0,0.025685 -0.551295,0.1459607 -0.829504,0.1775507 -1.153057,0.1798147 a 0.07915881,0.07759371 0 0 1 -0.02621,0 0.07915881,0.07759371 0 0 1 -0.02621,-0.02568 0.07915881,0.07759371 0 0 1 -0.02621,-0.02569 0.07915881,0.07759371 0 0 1 0,-0.02569 l 0,-1.5669517 a 0.07915881,0.07759371 0 0 1 0,-0.025692 0.07915881,0.07759371 0 0 1 0.02621,-0.025683 0.07915881,0.07759371 0 0 1 0.02621,-0.025692 0.07915881,0.07759371 0 0 1 0.02621,0 c 0.177592,-0.00283 0.319412,0.014309 0.497911,-0.025683 a 0.07915881,0.07759371 0 0 1 0.02621,0 c 0.0026,-6.328e-4 0.02363,6.85e-4 0.02621,0 0.0025,-8.821e-4 0.02371,9.782e-4 0.02621,0 0.0025,-9.694e-4 -0.0025,-0.024702 0,-0.025683 0.0024,-0.00114 0.02385,0.00123 0.02621,0 0.0022,-0.0015 -0.0022,-0.02419 0,-0.025692 0.0022,-0.0015 0.02405,0.0015 0.02621,0 0.0019,-0.00176 0.0243,0.00186 0.02621,0 0.0018,-0.00186 -0.0018,-0.023827 0,-0.025683 0.0017,-0.00203 0.02462,-0.023589 0.02621,-0.025692 0.0013,-0.0023 -0.0012,-0.023385 0,-0.025683 0.0011,-0.00239 0.02513,0.00239 0.02621,0 0.001,-0.00239 -9.6e-4,-0.023253 0,-0.025692 7.17e-4,-0.00256 -6.63e-4,-0.023156 0,-0.025683 4.53e-4,-0.00256 -3.98e-4,-0.023103 0,-0.025692 1.31e-4,-0.00266 -7.4e-5,-0.023076 0,-0.025683 -1.39e-4,-0.00266 1.96e-4,-0.023076 0,-0.025683 -4.62e-4,-0.00256 5.17e-4,-0.023121 0,-0.025692 -7.26e-4,-0.00256 7.8e-4,-0.023185 0,-0.025688 -10e-4,-0.00241 0.0011,-0.023297 0,-0.025688 -0.0011,-0.00239 -0.02507,0.00237 -0.02621,0 -0.0013,-0.00227 0.0014,-0.023444 0,-0.025688 -0.0016,-0.0021 -0.02457,0.00206 -0.02621,0 -0.0017,-0.00206 0.0017,-0.023657 0,-0.025688 -0.0019,-0.00182 -0.02424,-0.023909 -0.02621,-0.025688 -0.0022,-0.00153 -0.02401,0.00148 -0.02621,0 -0.0022,-0.00145 0.0023,-0.024289 0,-0.025689 -0.0024,-0.00127 -0.02384,0.00121 -0.02621,0 L 11.474097,6.3673164 a 0.07915881,0.07759371 0 0 1 -0.02621,0 c -0.0021,-0.00136 0.0021,-0.024361 0,-0.025689 -0.0022,-0.00116 -0.02396,0.00113 -0.02621,0 -0.0024,-8.995e-4 -0.02384,8.668e-4 -0.02621,0 -0.0024,-8.121e-4 0.0024,-0.024916 0,-0.025688 -0.0024,-6.342e-4 -0.02375,5.882e-4 -0.02621,0 -0.0025,-3.551e-4 -0.0237,3.08e-4 -0.02621,0 -0.0021,4.01e-4 -0.02409,-4.353e-4 -0.02621,0 -0.002,6.38e-4 -0.02416,-6.713e-4 -0.02621,0 z"
     id="path7451"
     style="fill:#b8b8b8;fill-opacity:1;stroke:none;display:inline" />
</svg>
