<?xml version="1.0" encoding="UTF-8" standalone="no"?>
<!-- Created with Inkscape (http://www.inkscape.org/) -->

<svg
   xmlns:dc="http://purl.org/dc/elements/1.1/"
   xmlns:cc="http://creativecommons.org/ns#"
   xmlns:rdf="http://www.w3.org/1999/02/22-rdf-syntax-ns#"
   xmlns:svg="http://www.w3.org/2000/svg"
   xmlns="http://www.w3.org/2000/svg"
   xmlns:xlink="http://www.w3.org/1999/xlink"
   xmlns:sodipodi="http://sodipodi.sourceforge.net/DTD/sodipodi-0.dtd"
   xmlns:inkscape="http://www.inkscape.org/namespaces/inkscape"
   version="1.0"
   width="22"
   height="22"
   id="svg3786"
   inkscape:version="0.47 r22583"
   sodipodi:docname="indicator-usb.svg">
  <metadata
     id="metadata22">
    <rdf:RDF>
      <cc:Work
         rdf:about="">
        <dc:format>image/svg+xml</dc:format>
        <dc:type
           rdf:resource="http://purl.org/dc/dcmitype/StillImage" />
      </cc:Work>
    </rdf:RDF>
  </metadata>
  <sodipodi:namedview
     pagecolor="#ffffff"
     bordercolor="#666666"
     borderopacity="1"
     objecttolerance="10"
     gridtolerance="10"
     guidetolerance="10"
     inkscape:pageopacity="0"
     inkscape:pageshadow="2"
     inkscape:window-width="697"
     inkscape:window-height="499"
     id="namedview20"
     showgrid="false"
     inkscape:zoom="10.727273"
     inkscape:cx="11"
     inkscape:cy="11"
     inkscape:window-x="0"
     inkscape:window-y="24"
     inkscape:window-maximized="0"
     inkscape:current-layer="svg3786" />
  <defs
     id="defs3788">
    <inkscape:perspective
       sodipodi:type="inkscape:persp3d"
       inkscape:vp_x="0 : 11 : 1"
       inkscape:vp_y="0 : 1000 : 0"
       inkscape:vp_z="22 : 11 : 1"
       inkscape:persp3d-origin="11 : 7.3333333 : 1"
       id="perspective24" />
    <linearGradient
       x1="46.427349"
       y1="101.88274"
       x2="46.427349"
       y2="85.788147"
       id="linearGradient3217"
       xlink:href="#linearGradient2215"
       gradientUnits="userSpaceOnUse"
       gradientTransform="matrix(0.1258389,0,0,0.19859933,0.13144651,-5.1683895)" />
    <linearGradient
       x1="7.8514447"
       y1="19.967693"
       x2="7.8514447"
       y2="7.034781"
       id="linearGradient3214"
       xlink:href="#linearGradient3484"
       gradientUnits="userSpaceOnUse"
       gradientTransform="matrix(0.6451613,0,0,0.9797594,0.258064,-6.7257265)" />
    <linearGradient
       x1="-35.53907"
       y1="-144.20657"
       x2="-35.53907"
       y2="-108.32133"
       id="linearGradient3212"
       xlink:href="#linearGradient7056"
       gradientUnits="userSpaceOnUse"
       gradientTransform="matrix(0.2359882,0,0,0.3555555,18.232394,51.440112)" />
    <linearGradient
       id="linearGradient7056">
      <stop
         id="stop7064"
         style="stop-color:#f0f0f1;stop-opacity:1"
         offset="0" />
      <stop
         id="stop7060"
         style="stop-color:#ddddde;stop-opacity:1"
         offset="1" />
    </linearGradient>
    <linearGradient
       id="linearGradient3484">
      <stop
         id="stop3486"
         style="stop-color:#aaaaaa;stop-opacity:1"
         offset="0" />
      <stop
         id="stop3488"
         style="stop-color:#c8c8c8;stop-opacity:1"
         offset="1" />
    </linearGradient>
    <linearGradient
       id="linearGradient2215">
      <stop
         id="stop2223"
         style="stop-color:#aaaaaa;stop-opacity:1"
         offset="0" />
      <stop
         id="stop2219"
         style="stop-color:#646464;stop-opacity:1"
         offset="1" />
    </linearGradient>
  </defs>
  <path
     d="m 3.5886629,15.1244 c 5.1131972,0 10.2263911,0 15.3395891,0 0.0412,0.126965 0.0067,0.183921 0.01803,0.337772 -0.311841,2.733349 -0.07398,2.170082 -0.796778,2.758101 -0.221172,0.03901 -8.9178012,0 -13.8100576,0 C 3.7524171,17.632254 3.881162,18.273453 3.570626,15.002923 L 3.588658,15.1244 z"
     id="rect2992"
     style="fill:#d1d1d1;fill-opacity:1;fill-rule:nonzero;stroke:#c3c3c5;stroke-width:0.8132537;stroke-linecap:butt;stroke-linejoin:miter;stroke-miterlimit:4;stroke-opacity:1;stroke-dasharray:none;stroke-dashoffset:0;marker:none;visibility:visible;display:inline;overflow:visible;enable-background:accumulate" />
  <path
     d="M 4.6715666,3.9358111 3.6849215,15.091044 c -0.00987,0 -0.014925,0.003 -0.014925,0.01125 l 15.1797715,0 c 0,-0.0083 -0.0051,-0.01125 -0.01492,-0.01125 L 17.81741,3.7152847 c 0,0 -0.189996,-0.7523109 -0.920538,-0.7523109 -0.696394,0 -10.6612956,-0.00451 -11.3949592,-0.00451 -0.7677727,0 -0.8303462,0.9773379 -0.8303462,0.9773379 z"
     id="rect2990"
     style="fill:#eeeeee;fill-opacity:1;fill-rule:nonzero;stroke:#d2d2d3;stroke-width:1.01198471;stroke-linecap:round;stroke-linejoin:round;stroke-miterlimit:4;stroke-opacity:1;stroke-dasharray:none;stroke-dashoffset:0;marker:none;visibility:visible;display:inline;overflow:visible;enable-background:accumulate" />
  <path
     d="m 4.6579878,15.102292 13.2037892,0"
     id="path2215"
     style="opacity:0.8;fill:#eeeeee;fill-opacity:1;stroke:#ffffff;stroke-width:1.01198471;stroke-linecap:round;stroke-linejoin:round;stroke-miterlimit:4;stroke-opacity:1;stroke-dasharray:none;display:inline" />
  <path
     d="m 11.188379,5.4886615 c -0.0032,0.00298 0.0031,0.026346 0,0.029414 -0.0031,0.00307 -0.02697,-0.00316 -0.03001,0 a 0.09063916,0.08884707 0 0 1 -0.03001,0.029413 c -0.461278,0.2119957 -1.094956,0.4587249 -1.560329,0.8235689 -0.00197,0.00179 0.00192,0.027595 0,0.029413 -0.0019,0.00185 -0.028148,-0.00189 -0.030006,0 -0.00168,0.00205 0.00164,0.027346 0,0.029414 -0.00156,0.00213 -0.028477,-0.00215 -0.030006,0 -0.00138,0.00224 0.00132,0.02714 0,0.029414 -0.00107,0.0024 0.00103,0.026996 0,0.029414 -0.00103,0.00242 -0.029019,-0.00244 -0.030006,0 -8.085e-4,0.00249 7.632e-4,0.026902 0,0.029413 -4.865e-4,0.00263 4.399e-4,0.026828 0,0.029418 -2.045e-4,0.00263 1.572e-4,0.026797 0,0.029408 7.98e-5,0.00263 -1.273e-4,0.026797 0,0.029418 4.103e-4,0.00263 -4.571e-4,0.026828 0,0.029408 6.887e-4,0.00253 -7.344e-4,0.026898 0,0.029418 9.567e-4,0.00243 0.029003,-0.00243 0.030006,0 0.00101,0.00243 -0.00105,0.027 0,0.029408 0.00125,0.00232 -0.00131,0.027121 0,0.029408 0.00151,0.00213 0.028463,-0.00213 0.030006,0 0.00159,0.00213 -0.00162,0.027334 0,0.029418 0.00187,0.00182 0.028103,0.027577 0.030006,0.029408 0.00213,0.00162 0.027856,-0.00152 0.030006,0 0.00217,0.00152 -0.00221,0.027931 0,0.029418 0.00233,0.00131 0.027652,-0.00122 0.030006,0 0.00248,9.925e-4 0.027514,0.028468 0.030006,0.029408 0.00256,7.276e-4 0.027426,-6.821e-4 0.030006,0 a 0.09063916,0.08884707 0 0 1 0.030006,0 c 0.221078,0.040905 0.376521,0.025138 0.570123,0.029418 a 0.09063916,0.08884707 0 0 1 0.03001,0 0.09063916,0.08884707 0 0 1 0.03001,0.029408 0.09063916,0.08884707 0 0 1 0.03001,0.029408 0.09063916,0.08884707 0 0 1 0,0.029418 c 0.01082,0.932454 0.03954,1.7681925 0,2.6766005 a 0.09063916,0.08884707 0 0 1 0,0.02941 0.09063916,0.08884707 0 0 1 -0.03001,0.02942 0.09063916,0.08884707 0 0 1 -0.03001,0.02941 0.09063916,0.08884707 0 0 1 -0.03001,0 c -0.175086,-0.0016 -0.3250608,-0.0054 -0.4801036,0 -0.3709091,0 -0.6490004,-0.03286 -0.8701877,-0.147066 -0.1956667,-0.10102 -0.35594,-0.304919 -0.4801032,-0.529424 a 0.09063916,0.08884707 0 0 1 0,-0.02941 0.09063916,0.08884707 0 0 1 0,-0.02942 0.09063916,0.08884707 0 0 1 0.030006,-0.02941 0.09063916,0.08884707 0 0 1 0.030006,-0.02942 C 8.7451084,8.8652057 8.9165329,8.7280647 8.9679004,8.5182274 8.9988053,8.3919798 8.9757596,8.2236956 8.8778813,8.1064427 8.778223,7.9870566 8.6731398,7.9257205 8.5178036,7.9005502 c -0.00506,6.274e-4 -0.031753,0.00749 -0.060013,0 C 7.8365572,7.735386 7.1459979,7.724319 6.50737,7.9887784 c -0.00876,0.00367 -0.021266,-0.00376 -0.030006,0 -0.00294,0.00322 0.00284,0.026081 0,0.029416 -0.00284,0.00331 -0.027261,-0.0034 -0.030006,0 -0.153379,0.1184134 -0.2796538,0.3093678 -0.2400518,0.5000236 0.042614,0.2051614 0.1741049,0.2798434 0.3000647,0.3529594 0.1795403,0.104216 0.3231066,0.142512 0.4801035,0.176479 a 0.09063916,0.08884707 0 0 1 0.030006,0.02941 0.09063916,0.08884707 0 0 1 0.030006,0 c 0.1805073,0.305494 0.3706905,0.645012 0.8401813,1.0294606 0.00313,0.0015 0.026839,-0.0014 0.030006,0 a 0.09063916,0.08884707 0 0 1 0.030006,0 c 0.4000816,0.238183 0.6012534,0.417172 0.9602072,0.500024 0.2759877,0.06371 0.7789008,0.05429 1.3802981,0.05882 a 0.09063916,0.08884707 0 0 1 0.03001,0 0.09063916,0.08884707 0 0 1 0.03001,0.02942 0.09063916,0.08884707 0 0 1 0.03001,0.02941 0.09063916,0.08884707 0 0 1 0,0.02941 c 7.62e-4,0.405098 -0.0037,0.817803 0,1.235355 a 0.09063916,0.08884707 0 0 1 0,0.02942 0.09063916,0.08884707 0 0 1 -0.03001,0.02941 0.09063916,0.08884707 0 0 1 -0.03001,0.02941 c -0.274197,0.107499 -0.5119196,0.18696 -0.750162,0.411784 -0.00239,0.0021 0.00235,0.02726 0,0.02942 -0.0023,0.0022 -0.027757,-0.0022 -0.030006,0 -0.00205,0.0024 0.00198,0.02694 0,0.02941 -0.00189,0.0025 -0.02818,-0.0026 -0.030006,0 -0.00165,0.0028 0.0016,0.02668 0,0.02941 -0.00136,0.0029 0.00129,0.02652 0,0.02941 -0.00122,0.003 -0.028845,-0.003 -0.030006,0 -9.657e-4,0.003 9.03e-4,0.02639 0,0.02942 -6.359e-4,0.0031 5.684e-4,0.02631 0,0.02941 -0.030018,0.173147 -0.00215,0.346133 0.090019,0.470612 0.094148,0.127155 0.2299854,0.183143 0.3600776,0.235305 0.2409094,0.09659 0.4795264,0.148026 0.6001294,0.176479 0.0031,1.91e-4 0.02688,-1.29e-4 0.03001,0 0.0031,-1.29e-4 0.02689,1.91e-4 0.03001,0 0.650016,0.06408 1.560848,0.08894 2.250485,-0.323546 a 0.09063916,0.08884707 0 0 1 0.03001,0 c 0.0034,-0.002 0.02663,0.0021 0.03001,0 0.0033,-0.0021 -0.0032,-0.02718 0,-0.02941 0.0031,-0.0023 0.02692,0.0024 0.03001,0 0.0028,-0.0028 -0.0028,-0.02664 0,-0.02941 0.0028,-0.0028 0.02734,0.0029 0.03001,0 0.11359,-0.163989 0.103092,-0.432195 0.03001,-0.588265 -0.08038,-0.171641 -0.190582,-0.232275 -0.330071,-0.32353 C 12.498208,12.1487 12.34816,12.100644 12.17861,12.047813 a 0.09063916,0.08884707 0 0 1 -0.03001,-0.02942 0.09063916,0.08884707 0 0 1 -0.03001,-0.02941 0.09063916,0.08884707 0 0 1 0,-0.02942 l 0,-2.0883376 a 0.09063916,0.08884707 0 0 1 0,-0.02942 0.09063916,0.08884707 0 0 1 0.03001,-0.02941 0.09063916,0.08884707 0 0 1 0.03001,-0.02942 0.09063916,0.08884707 0 0 1 0.03001,0 c 0.946127,-0.06596 1.786311,-0.198789 2.700582,-0.794154 l 0,0.02941 C 15.228216,8.7970184 15.43063,8.4285811 15.569345,8.047595 a 0.09063916,0.08884707 0 0 1 0.03001,-0.029416 0.09063916,0.08884707 0 0 1 0.03001,-0.029407 0.09063916,0.08884707 0 0 1 0.03001,0 l 0.420091,-0.058824 0.03001,0 c 0.0031,-8.941e-4 0.02684,9.835e-4 0.03001,0 0.003,-0.00125 -0.003,-0.028173 0,-0.029418 0.003,-0.00122 0.02696,0.00131 0.03001,0 0.0029,-0.00162 0.02716,0.00172 0.03001,0 0.0028,-0.00182 -0.0028,-0.027486 0,-0.029408 0.0026,-0.00202 0.02741,0.00202 0.03001,0 0.0024,-0.00223 -0.0023,-0.027101 0,-0.029408 0.0023,-0.00232 0.02777,0.00243 0.03001,0 0.0021,-0.00263 -0.002,-0.026777 0,-0.029418 0.0018,-0.00274 0.02825,0.00274 0.03001,0 0.0016,-0.00283 -0.0015,-0.026544 0,-0.029408 0.0013,-0.00304 -0.0011,-0.026373 0,-0.029418 0.0011,-0.00304 0.02896,0.00304 0.03001,0 8.94e-4,-0.00314 -8.35e-4,-0.026261 0,-0.029408 5.46e-4,-0.00324 -4.76e-4,-0.02619 0,-0.029418 1.82e-4,-0.00324 -1.11e-4,-0.02616 0,-0.029408 l 0,-0.5294381 c -1.94e-4,-0.00364 2.81e-4,-0.025816 0,-0.029408 -5.51e-4,-0.00354 6.39e-4,-0.025856 0,-0.029418 -9.84e-4,-0.00344 9.83e-4,-0.025968 0,-0.029408 -0.0011,-0.00344 -0.02876,0.00344 -0.03001,0 -0.0014,-0.00333 0.0015,-0.02612 0,-0.029418 -0.0018,-0.00314 0.002,-0.026322 0,-0.029408 -0.0021,-0.00304 -0.02796,0.00304 -0.03001,0 -0.0022,-0.00293 0.0023,-0.026575 0,-0.029418 -0.0025,-0.00263 -0.02748,0.00263 -0.03001,0 -0.0028,-0.00253 0.0028,-0.02699 0,-0.029408 -0.0029,-0.00223 -0.02705,0.00213 -0.03001,0 -0.003,-0.00202 0.003,-0.027475 0,-0.029408 -0.0031,-0.00182 -0.02681,0.00182 -0.03001,0 -0.0033,-0.00152 -0.02661,0.00141 -0.03001,0 -0.0034,-0.00122 0.0034,-0.028274 0,-0.029418 -0.0036,-0.00101 -0.02646,9.656e-4 -0.03001,0 -0.0037,-6.264e-4 -0.02637,5.404e-4 -0.03001,0 -0.0037,-2.763e-4 -0.02633,1.893e-4 -0.03001,0 l -2.010435,0 c -0.0037,1.893e-4 -0.02634,-2.763e-4 -0.03001,0 -0.0037,5.404e-4 -0.02638,-6.264e-4 -0.03001,0 -0.0036,9.656e-4 -0.02648,-0.00101 -0.03001,0 -0.0034,0.00112 0.0034,0.028194 0,0.029418 -0.0033,0.00141 -0.02664,-0.00152 -0.03001,0 -0.0031,0.00182 -0.02685,-0.00182 -0.03001,0 -0.003,0.00192 0.003,0.027404 0,0.029408 -0.003,0.00213 -0.02711,-0.00223 -0.03001,0 -0.0028,0.00243 0.0028,0.026929 0,0.029408 -0.0025,0.00263 -0.02753,-0.00263 -0.03001,0 -0.0023,0.00283 0.0022,0.026514 0,0.029418 -0.0021,0.00304 -0.02804,-0.00304 -0.03001,0 -0.002,0.00314 0.0018,0.026271 0,0.029408 -0.0015,0.00334 0.0014,0.026079 0,0.029418 -0.0013,0.00344 -0.02884,-0.00344 -0.03001,0 -9.83e-4,0.00344 9.84e-4,0.025937 0,0.029408 -6.39e-4,0.00354 5.51e-4,0.025846 0,0.029418 -2.81e-4,0.00354 1.94e-4,0.025806 0,0.029408 l 0,0.5294381 c 1.63e-4,0.00344 -2.41e-4,0.025998 0,0.029408 5.64e-4,0.00334 -6.43e-4,0.026048 0,0.029418 9.84e-4,0.00334 -9.83e-4,0.026139 0,0.029408 0.0011,0.00324 0.02883,-0.00324 0.03001,0 0.0013,0.00314 -0.0014,0.026281 0,0.029418 0.0017,0.00304 -0.0017,0.026463 0,0.029408 0.002,0.00283 0.02803,-0.00283 0.03001,0 0.0021,0.00274 -0.0022,0.026737 0,0.029418 0.0024,0.00253 0.02758,-0.00243 0.03001,0 0.0025,0.00243 -0.0025,0.027051 0,0.029408 0.0029,0.00213 0.02722,-0.00202 0.03001,0 0.0029,0.00192 -0.003,0.027556 0,0.029408 0.003,0.00182 0.02699,-0.00172 0.03001,0 0.0031,0.00141 0.02677,-0.00131 0.03001,0 0.0032,0.00122 -0.0032,0.028265 0,0.029418 0.0033,9.835e-4 0.02664,-8.941e-4 0.03001,0 0.0034,6.116e-4 0.02655,-5.329e-4 0.03001,0 l 0.06001,0 a 0.09063916,0.08884707 0 0 1 0.03001,0 0.09063916,0.08884707 0 0 1 0.03001,0.029407 0.09063916,0.08884707 0 0 1 0.03001,0.029416 0.09063916,0.08884707 0 0 1 0,0.029407 0.09063916,0.08884707 0 0 1 0,0.029416 0.09063916,0.08884707 0 0 1 0,0.029407 c -0.133395,0.2270496 -0.343784,0.419052 -0.570123,0.529439 -0.01144,0.003 -0.01858,4.09e-4 -0.03001,0 -0.0096,0.0025 -0.03444,-9.84e-4 -0.03001,0 -0.0063,0.0044 0.0096,0.02528 0,0.02941 -0.631249,0.167129 -0.949806,0.203301 -1.320284,0.205893 a 0.09063916,0.08884707 0 0 1 -0.03001,0 0.09063916,0.08884707 0 0 1 -0.03001,-0.02941 0.09063916,0.08884707 0 0 1 -0.03001,-0.02942 0.09063916,0.08884707 0 0 1 0,-0.02942 l 0,-1.7942052 a 0.09063916,0.08884707 0 0 1 0,-0.029418 0.09063916,0.08884707 0 0 1 0.03001,-0.029408 0.09063916,0.08884707 0 0 1 0.03001,-0.029418 0.09063916,0.08884707 0 0 1 0.03001,0 c 0.203348,-0.00324 0.365736,0.016384 0.570123,-0.029408 a 0.09063916,0.08884707 0 0 1 0.03001,0 c 0.003,-7.246e-4 0.02706,7.843e-4 0.03001,0 0.0029,-0.00101 0.02715,0.00112 0.03001,0 0.0029,-0.00111 -0.0029,-0.028285 0,-0.029408 0.0027,-0.00131 0.02731,0.00141 0.03001,0 0.0025,-0.00172 -0.0025,-0.027698 0,-0.029418 0.0025,-0.00172 0.02754,0.00172 0.03001,0 0.0022,-0.00202 0.02782,0.00213 0.03001,0 0.0021,-0.00213 -0.0021,-0.027283 0,-0.029408 0.0019,-0.00232 0.02819,-0.02701 0.03001,-0.029418 0.0015,-0.00263 -0.0014,-0.026777 0,-0.029408 0.0013,-0.00274 0.02878,0.00274 0.03001,0 0.0012,-0.00274 -0.0011,-0.026626 0,-0.029418 8.2e-4,-0.00293 -7.6e-4,-0.026514 0,-0.029408 5.18e-4,-0.00293 -4.56e-4,-0.026453 0,-0.029418 1.49e-4,-0.00304 -8.5e-5,-0.026423 0,-0.029408 -1.6e-4,-0.00304 2.24e-4,-0.026423 0,-0.029408 -5.3e-4,-0.00293 5.92e-4,-0.026474 0,-0.029418 -8.32e-4,-0.00293 8.93e-4,-0.026548 0,-0.029414 -0.0012,-0.00276 0.0013,-0.026676 0,-0.029414 -0.0013,-0.00274 -0.02871,0.00271 -0.03001,0 -0.0015,-0.0026 0.0016,-0.026844 0,-0.029414 -0.0018,-0.0024 -0.02813,0.00236 -0.03001,0 -0.0019,-0.00236 0.002,-0.027088 0,-0.029414 -0.0022,-0.00208 -0.02776,-0.027377 -0.03001,-0.029414 -0.0025,-0.00175 -0.02749,0.0017 -0.03001,0 -0.0025,-0.00166 0.0026,-0.027811 0,-0.029414 -0.0027,-0.00145 -0.0273,0.00139 -0.03001,0 L 11.398425,5.5474633 a 0.09063916,0.08884707 0 0 1 -0.03001,0 c -0.0024,-0.00156 0.0024,-0.027894 0,-0.029414 -0.0025,-0.00133 -0.02743,0.00129 -0.03001,0 -0.0027,-0.00103 -0.0273,9.925e-4 -0.03001,0 -0.0027,-9.299e-4 0.0028,-0.02853 0,-0.029414 -0.0028,-7.262e-4 -0.0272,6.735e-4 -0.03001,0 -0.0029,-4.066e-4 -0.02714,3.527e-4 -0.03001,0 -0.0024,4.592e-4 -0.02758,-4.985e-4 -0.03001,0 -0.0023,7.305e-4 -0.02766,-7.687e-4 -0.03001,0 z"
     id="path7451"
     style="fill:#858585;fill-opacity:1;stroke:none;display:inline" />
</svg>
